inDegrees=yes
name=ik_lifting_orientations
DataType=double
version=3
OpenSimVersion=4.5-2024-01-10-34fd6af
endheader
time	pelvis_tilt	pelvis_list	pelvis_rotation	pelvis_tx	pelvis_ty	pelvis_tz	hip_flexion_r	hip_adduction_r	hip_rotation_r	knee_angle_r	knee_angle_r_beta	ankle_angle_r	subtalar_angle_r	mtp_angle_r	hip_flexion_l	hip_adduction_l	hip_rotation_l	knee_angle_l	knee_angle_l_beta	ankle_angle_l	subtalar_angle_l	mtp_angle_l	lumbar_extension	lumbar_bending	lumbar_rotation	arm_flex_r	arm_add_r	arm_rot_r	elbow_flex_r	pro_sup_r	wrist_flex_r	wrist_dev_r	arm_flex_l	arm_add_l	arm_rot_l	elbow_flex_l	pro_sup_l	wrist_flex_l	wrist_dev_l
4.48	0.001315621910321382	-0.003802523992659451	-175.6168471535999	0	0.9400000003403366	0	30.93709708806556	-9.670046176490176	0	41.87436526268045	0.7308455460165141	-4.936247328968728	0	0	30.93709708806556	-9.670046176490176	0	41.87436526268045	0.7308455460165141	-4.936247328968728	0	0	-0.007568547578558032	-0.0404334158642911	-0.03106608555031374	-63.7454769830506	-77.52166421166557	-66.2746218191607	7.346652324935395	-24.82240726783219	0	0	0	-6.220453639362995	0	56.25474732786115	24.82219690142698	0	0
4.49	-0.004073943875357191	-0.02857215865365374	-175.6018515478678	0	0.9400000003403366	0	30.99658024362519	-9.674753310375092	0	41.93798126687042	0.7319558547465916	-4.937432169265212	0	0	30.99658024362519	-9.674753310375092	0	41.93798126687042	0.7319558547465916	-4.937432169265212	0	0	-0.003052601847160194	-0.09437164251547021	-0.06219270710670928	-68.48350722728752	-78.00308440980801	-70.88981960071199	7.539242371738755	-24.74622163632941	0	0	0	-6.238890588278869	0	56.33632693491411	24.74601127024881	0	0
4.5	0.0007352162347913165	-0.00613072237055279	-175.6197373943413	0	0.9400000003403366	0	31.06651929836586	-9.68022592628944	0	42.01280624446746	0.7332617969683909	-4.938802775595069	0	0	31.06651929836586	-9.68022592628944	0	42.01280624446746	0.7332617969683909	-4.938802775595069	0	0	-0.002836909200498071	-0.07330265804805026	-0.02308703332153875	-72.70068308555055	-78.37407476543503	-74.88054767066265	7.507788680656617	-24.65654513240205	0	0	0	-6.260628068777619	0	56.43220363267651	24.65633476670297	0	0
4.51	-0.002009727283845713	-0.00518618437301823	-175.6228736096902	0	0.9400000003403366	0	31.13765197487575	-9.685731689078215	0	42.08893496916266	0.7345904938696665	-4.940174999242517	0	0	31.13765197487575	-9.685731689078215	0	42.08893496916266	0.7345904938696665	-4.940174999242517	0	0	-0.008608682856731014	-0.1043519612768877	-0.01244004745039618	-77.08457918960829	-78.53677023736859	-79.25963769800723	7.638405318321348	-24.56524050384825	0	0	0	-6.282795302271685	0	56.52967494437528	24.56503013853694	0	0
4.52	0.002857993232523925	0.003061350504049817	-175.6217502811625	0	0.9400000003403366	0	31.19765293215252	-9.69032975589953	0	42.15317245151236	0.7357116494398604	-4.941315898717962	0	0	31.19765293215252	-9.69032975589953	0	42.15317245151236	0.7357116494398604	-4.941315898717962	0	0	-0.01229966183652004	-0.1462986811234715	-0.01527271307673148	-80.81126122074043	-78.61354858006509	-82.95440970175548	7.827906794951772	-24.48814852035089	0	0	0	-6.301539134802125	0	56.61186092396255	24.48793815536657	0	0
4.53	0.0006680461023091749	-0.01504797787810049	-175.6186916400444	0	0.9400000003403366	0	31.25685404054995	-9.694814083033158	0	42.21657817038924	0.736818287998856	-4.942422806681509	0	0	31.25685404054995	-9.694814083033158	0	42.21657817038924	0.736818287998856	-4.942422806681509	0	0	-0.02006293940256054	-0.2351053864897755	-0.02508315794228594	-83.23124314251722	-78.74903520950247	-85.35165633014836	7.812118851607019	-24.41199717251499	0	0	0	-6.320085369654313	0	56.69291515459672	24.4117868078531	0	0
4.54	0.001525217586070824	0.004982659299813823	-175.6122775108481	0	0.9400000003403366	0	31.30052700909804	-9.698096215917008	0	42.26336905789722	0.7376349430458005	-4.943230141583584	0	0	31.30052700909804	-9.698096215917008	0	42.26336905789722	0.7376349430458005	-4.943230141583584	0	0	-0.02307388423544627	-0.3528260328656692	-0.03025780371501877	-85.37846162157234	-78.70504408962032	-87.34890913488556	7.947793260562627	-24.35577536715581	0	0	0	-6.333793775925436	0	56.75269135119868	24.35556500273171	0	0
4.55	-0.0005740589025592423	-0.0002253962080211696	-175.620020729568	0	0.9400000003403366	0	31.34214085451337	-9.70119876924314	0	42.30796631434131	0.738413312008106	-4.943990592257046	0	0	31.34214085451337	-9.70119876924314	0	42.30796631434131	0.738413312008106	-4.943990592257046	0	0	-0.03733909474736004	-0.6255598289083817	-0.03414519075257739	-86.72382784368773	-78.89161256047723	-88.61509737442698	7.765370897395205	-24.30216211378489	0	0	0	-6.346881187016046	0	56.80963206709339	24.30195174958728	0	0
4.56	0.0100181620071715	0.02241915838381213	-175.6190363174973	0	0.9400000003403366	0	31.35730233583494	-9.702323744594434	0	42.32422304517699	0.7386970454867992	-4.944265772230959	0	0	31.35730233583494	-9.702323744594434	0	42.32422304517699	0.7386970454867992	-4.944265772230959	0	0	-0.0303434583692374	-0.9542522143159683	-0.05186568659442121	-87.26776775910945	-79.03197856854645	-89.14648587153742	7.663015606609887	-24.28261813481979	0	0	0	-6.351655892905868	0	56.83037388838098	24.28240777070468	0	0
4.57	-0.005625851879241832	-0.01514894313007257	-175.6232686470618	0	0.9400000003403366	0	31.3614892466796	-9.702633404342635	0	42.32871824072707	0.7387755014496691	-4.944341438674435	0	0	31.3614892466796	-9.702633404342635	0	42.32871824072707	0.7387755014496691	-4.944341438674435	0	0	-0.07045101834712694	-1.372921653093672	-0.05497603792556984	-87.51247466074128	-79.1937329472524	-89.30706467435338	7.52321285532423	-24.2772179008659	0	0	0	-6.352976364476721	0	56.83610105781752	24.27700753677357	0	0
4.58	0.006286199810862518	-0.004575611133833204	-175.6241161009105	0	0.9400000003403366	0	31.3727807079728	-9.70346851087429	0	42.34082818652418	0.7389868598760668	-4.944545426465252	0	0	31.3727807079728	-9.70346851087429	0	42.34082818652418	0.7389868598760668	-4.944545426465252	0	0	-0.04622265594391098	-1.771205334086076	-0.06472285697177568	-87.84500262192402	-79.26111779649021	-89.5659388249738	7.421546129752175	-24.26265756400442	0	0	0	-6.356535336057726	0	56.85154657142559	24.26244719997351	0	0
